<?xml version="1.0" encoding="UTF-8"?>
<svg id="Layer_1" data-name="Layer 1" xmlns="http://www.w3.org/2000/svg" viewBox="0 0 1260.19 537.62">
  <defs>
    <style>
      .cls-1 {
        stroke-width: 0px;
      }
    </style>
  </defs>
  <g>
    <path fill = "white" class="cls-1" d="m10.56,471.37c-1.72-13.3.57-25.29,6.89-35.95,6.34-10.41,14.73-16.3,25.16-17.64,6.26-.81,13.55,2.31,21.89,9.35,15.27,13.52,31.18,22.78,47.74,27.78,15.74,4.85,34.3,5.9,55.69,3.13,25.29-3.27,45.37-9.06,60.2-17.38,14.34-8,20.84-17.21,19.5-27.61-.81-6.29-4.68-11.57-11.59-15.84-7.15-3.99-19.1-8.23-35.85-12.71-.56-.17-2.34-.68-5.37-1.52-3.03-.84-6.47-1.87-10.34-3.09-2.5-.91-6.16-1.97-10.95-3.2-4.8-1.22-10.08-2.57-15.84-4.04-27.55-8-43.41-12.71-47.57-14.15-11.61-3.66-20.23-6.73-25.85-9.2-6.99-2.79-14.5-6.49-22.52-11.11C25.64,317.28,5.29,289.16.73,253.83c-2.35-18.15.99-36.41,10.02-54.8,9.25-18.66,25.2-38.92,47.82-60.79,27.77-27.21,59.26-53.29,94.49-78.27,35.02-24.45,64.79-38.27,89.31-41.44,22.42-2.9,40.3,3.03,53.61,17.79,13.31,14.76,22,37.87,26.07,69.32,4.1,31.7,2.57,57.85-4.57,78.45-7.01,19.6-21.08,30.77-42.2,33.5-9.13,1.18-17.43-.45-24.9-4.9-7.96-4.14-12.38-9.59-13.25-16.37-.28-2.18,1.43-6.33,5.15-12.47,6.05-10.62,7.89-25.13,5.51-43.52-3-23.23-10.37-34.08-22.11-32.56-18.52,2.39-44.67,18.57-78.45,48.52-43.05,38.29-63.17,68.19-60.39,89.73,1.44,11.13,9.55,20.54,24.33,28.22,13.96,7.55,44.81,18.44,92.52,32.68,33.93,10.13,56.65,17.77,68.19,22.92,42.25,19.14,65.2,42.86,68.86,71.17,2.94,22.74-4.45,43.5-22.18,62.28-12.81,13.71-32.36,26.57-58.65,38.58-25.54,11.67-51.09,19.15-76.65,22.45l-22.69,2.93c-28,2.88-53.23,2.58-75.69-.91-21.65-3.35-39.06-9.83-52.23-19.45-12.92-9.64-20.28-21.48-22.09-35.52Z"/>
    <path fill = "white" class="cls-1" d="m449.14,221.61c-14.06,10.31-38.93,20.72-56.46,20.72-15.36,0-28.19-4-38.48-12-10.15-7.86-7.81-19.3-7.81-31.51,0-9.22,4.63-22.91,10.57-33.35,5.94-10.17,13.91-19.05,23.91-26.65,18.26-13.29,41.23-22.17,68.92-26.65.29-4.34.44-7.73.44-10.17,0-8.68-.94-14.78-2.83-18.31-1.89-3.66-5.22-5.49-10-5.49s-10.29,2.31-16.09,6.92c-5.8,4.61-10.44,10.24-13.91,16.88-3.91,7.6-9.57,11.39-16.96,11.39-5.08,0-9.5-1.69-13.26-5.09-3.91-3.25-5.87-7.12-5.87-11.6s2.17-9.97,6.52-16.48c4.06-6.37,9.64-12.68,16.74-18.92,15.51-13.02,31.23-19.53,47.18-19.53s28.12,5.49,37.83,16.48c9.71,11.12,14.57,25.36,14.57,42.72,0,4.34-.15,9.63-.43,15.87l-.43,21.16-.22,17.29c-.15.95-.22,7.26-.22,18.92v6.92c-.15.95-.22,2.44-.22,4.48,0,15.33,11.49,46.54,14.24,49.66l3.04,3.66c.43.54.65,1.49.65,2.85,0,4.88-3.19,9.7-9.57,14.44-6.23,4.88-12.61,7.32-19.13,7.32-10.73,0-28.37-28.64-32.72-41.93Zm1.09-64.49v-7.12c-9.86.68-19.35,2.92-28.48,6.71-8.99,3.66-16.45,8.61-22.39,14.85-5.65,6.1-8.48,12.21-8.48,18.31,0,2.98,1.23,5.43,3.69,7.32,2.46,1.9,5.65,2.85,9.57,2.85,6.09,0,13.04-1.63,20.87-4.88,7.68-3.25,13.99-7.25,18.91-12,2.61-2.71,4.35-5.63,5.22-8.75.72-3.66,1.09-9.42,1.09-17.29Z"/>
    <path fill = "white" class="cls-1" d="m575.65,123.48c1.16-1.63,2.1-2.98,2.83-4.07.72-1.08,1.23-1.76,1.52-2.03l8.7-11.59c4.93-6.92,9.85-13.36,14.78-19.33,3.48-4.34,7.1-8.07,10.87-11.19,5.51-4.88,10.58-7.32,15.22-7.32,13.91,0,24.78,18.78,32.61,56.35.72-1.08,1.34-2.1,1.85-3.05.51-.95.83-1.56.98-1.83l9.13-15.26c19.71-33.5,36.96-50.25,51.74-50.25,11.31,0,19.85,8.21,25.65,24.61,5.8,16.27,8.7,39.87,8.7,70.79,0,8.68-.37,19.26-1.09,31.73-.58,10.44-1.6,20.75-3.04,30.92-1.3,9.63-2.68,16.41-4.13,20.34-4.06,13.43-11.89,20.14-23.48,20.14-5.95,0-11.45-1.63-16.52-4.88-4.93-3.25-7.39-6.78-7.39-10.58,0-2.03,1.09-5.76,3.26-11.19,2.61-6.37,4.78-15.05,6.52-26.04,1.59-11.66,2.39-22.85,2.39-33.56s-.65-19.73-1.96-28.28c-1.02-5.83-2.54-8.75-4.57-8.75s-5.37,2.85-10,8.54c-4.64,6.1-9.21,13.09-13.7,20.95-8.41,15.6-14.42,30.58-18.04,44.96-1.3,5.16-2.1,8.75-2.39,10.78-.43,2.31-2.37,8.3-3.39,18.33-.58,6.65-2.17,11.46-4.78,14.44-2.75,2.99-6.81,4.48-12.17,4.48-6.09,0-11.45-1.35-16.09-4.07-4.49-2.57-6.74-5.83-6.74-9.76,0-2.17.29-4.41.87-6.71,1.45-6.37,3.39-15.76,3.39-28.51,0-21.7-2.54-40.07-7.61-55.13-2.9-8-5.22-12-6.96-12-1.89,0-5.65,3.8-11.31,11.39-5.65,7.6-11.02,16.82-16.09,27.67-5.22,10.98-8.48,19.94-9.78,26.85l-7.43,61.05c-.43,2.44-.65,3.94-.65,4.48l1.09,18.71c0,.41-.43,1.56-1.3,3.46-3.77,6.78-10.08,10.17-18.92,10.17-9.56,0-16.16-2.71-19.78-8.14-3.62-5.42-5.44-15.39-5.44-29.9,0-10.03,6.56-77.33,9.61-106.62l3.04-28.68c.72-5.7,1.37-13.63,1.96-23.8l.65-9.76c.29-3.8.44-7.05.44-9.76s-.58-6.1-1.74-10.17c-.58-1.49-.87-2.98-.87-4.48,0-3.79,2.24-6.98,6.74-9.56,4.64-2.71,9.64-4.07,15-4.07,7.68,0,13.55,1.42,17.61,4.27,4.06,2.99,6.09,7.19,6.09,12.61,0,4.21-.44,9.15-1.31,14.85l-2.39,15.26c-.73,4.88-1.45,12.28-2.17,22.17Z"/>
    <path fill = "white" class="cls-1" d="m889.81,192.47c-17.54,28.89-40.81,61.66-60.38,61.66-9.28,0-17.25-2.71-23.91-8.14-6.67-5.29-11.9-21.27-15.66-31.44-3.63-10.03-.7-31.98-.7-45.68,0-10.3.72-21.56,2.18-33.77,1.45-13.56,3.26-25.97,5.43-37.23,2.61-12.88.04-2.86,2.51-9.5,3.18-8.68,6.66-14.85,10.44-18.51,3.77-3.52,8.26-5.29,13.48-5.29,6.09,0,11.59,1.9,16.52,5.7,4.78,3.8,7.17,8.07,7.17,12.82,0,2.17-1.3,6.24-3.91,12.21-4.35,9.63-3.02,4.15-6.2,23.13-3.34,19.8-5,36.82-5,51.06,0,6.92.65,12.14,1.96,15.66,1.16,3.53,2.97,5.29,5.44,5.29,3.04,0,6.45-1.49,10.22-4.47,3.91-3.12,7.9-6.92,11.96-11.39,4.2-4.75,8.11-10.24,11.74-16.48,4.49-7.19,9.57-17.36,15.22-30.51,5.07-11.93,9.49-24.07,13.26-36.41,3.33-11.66,8.09-19.95,8.67-28.36.58-6.78,3.45-13.03,6.93-16.29,3.19-2.98,9.46-10.26,16.66-11.11,7.87-.93,17.72,4.02,22.22,7.41,4.63,3.53-.16,13.35-.16,18.36,0,2.44-.58,5.7-1.74,9.76-3.91,13.97-9.98,25.71-12.59,38.73-2.61,13.16-4.57,25.56-5.87,37.23-1.45,10.98-2.17,21.63-2.17,31.94,0,13.7,1.74,23.8,5.22,30.31l4.35,8.75c1.3,2.17,13.42,22.41,13.42,25.12,0,4.07-2.03,7.32-6.09,9.76-4.06,2.58-9.5,3.87-16.31,3.87-13.19,0-22.18-5.97-26.96-17.9-2.32-5.7-15.75-32.99-17.34-46.28Z"/>
    <path fill = "white" class="cls-1" d="m1008.39,179.95c1.74,7.46,4.85,12.88,9.35,16.27,4.64,3.66,10.66,5.49,18.05,5.49,7.83,0,15.87-1.9,24.13-5.7,8.4-3.93,15.87-9.15,22.39-15.66,7.1-7.05,11.01-14.31,11.74-21.77.72-6.78,4.93-10.17,12.61-10.17,6.96,0,12.68,2.03,17.18,6.1,4.49,4.2,6.74,9.43,6.74,15.66,0,13.56-9.13,28.07-27.39,43.53-19.86,16.55-39.28,23.06-62.33,23.06-13.63,0-25.01-1.03-36.45-6.6-11.02-5.42-20.21-13.09-26.73-23.26-6.38-10.03-11.11-20.99-11.11-33.33,0-13.97-.48-29.76,5.9-46.17,6.37-16.41,8.51-32.55,19.09-46.52,10-13.15,21.87-23.92,33.33-31.25,11.31-7.32,29.96-9.25,40.68-9.25,12.32,0,22.54,4.21,30.65,12.61,8.11,8.68,12.18,19.33,12.18,31.94,0,9.9-2.54,19.94-7.61,30.11-4.93,9.76-11.96,19.06-21.09,27.87-9.28,8.68-20,16.21-32.18,22.58-12.61,6.65-25.66,11.46-39.13,14.44Zm7.17-40.28c14.2-7.19,26.96-16.75,38.26-28.68,11.16-11.93,16.74-21.7,16.74-29.29,0-2.03-.43-3.52-1.3-4.48-1.16-1.08-2.61-1.63-4.35-1.63-7.39.41-15.95,6.99-25.65,19.73-10.15,13.29-18.05,28.07-23.7,44.35Z"/>
    <path fill = "white" class="cls-1" d="m1205.77,159.7c0,4.34-2.17,8.07-6.52,11.19-4.5,3.26-9.78,4.88-15.87,4.88-8.12,0-21.35-2.88-29.98-13.74-4.95-6.22-7.39-16.2-7.39-29.9,0-.95.14-5.49.43-13.63,0-1.9.07-3.32.22-4.27v-4.88l1.09-26.45c.43-15.46-1.47,14.79,1.29-21.7l-.81,2.67c1.01-13.43,1.52-23.32,1.52-29.7,0-4.34-.43-8-1.3-10.98-1.16-3.93-1.74-6.31-1.74-7.12,0-3.93,3.04-7.59,9.13-10.99,5.79-3.39,12.03-5.09,18.7-5.09s11.81,1.7,15.87,5.09c4.06,3.39,6.09,7.93,6.09,13.63,0,1.49-.36,5.09-1.09,10.78-1.31,10.98-2.83,23.94-4.57,38.85-2.32,20.62-.63-10.17-1.94,20.07-.73,12.48,2.69-20.03,2.55-12.85-.15,7.46-.36,13.36-.65,17.7-.15,2.98-.22,8.61-.22,16.88,0,10.71.22,18.72.65,24,.43,5.56,10.7,13.34,11.72,16.18l1.96,5.09c.58,1.22.87,2.64.87,4.27Z"/>
  </g>
  <g>
    <path fill = "white" class="cls-1" d="m416.36,394c6.12-11,13.91-27.32,23.37-48.96,8.72-19.16,13.72-33,15.02-41.52.74-4.96,1.95-8.87,3.62-11.71,1.29-2.66,3.62-4.7,6.95-6.12,3.15-1.06,7.14-1.6,11.96-1.6,15.39,0,27.54,4.7,36.45,14.1,3.15,3.37,5.29,6.83,6.4,10.38,1.11,4.97,2.04,12.77,2.78,23.42,1.48,14.73,3.62,28.21,6.4,40.45,2.78,13.49,6.12,25.73,10.02,36.73,4.08-16.67,8.72-32.73,13.91-48.17,5.19-15.44,11.22-30.96,18.08-46.57,9.08-20.23,16.69-33.44,22.81-39.65,6.49-6.39,14.93-9.58,25.32-9.58,7.79,0,14.93,2.31,21.42,6.92,6.3,4.79,9.46,10.29,9.46,16.5,0,2.13-1.58,5.68-4.73,10.64l-6.96,10.11c-6.31,9.76-15.21,28.03-26.71,54.82-5.75,13.49-11.13,27.5-16.14,42.05-1.49,4.26-2.64,7.54-3.48,9.85-.83,2.31-1.9,5.55-3.2,9.71-1.3,4.17-2.74,9.05-4.31,14.64-1.58,5.59-2.55,8.83-2.92,9.71-4.83,17.39-7.23,29.01-7.23,34.86v8.78c0,6.03-3.15,11.44-9.46,16.23-6.31,4.79-13.73,7.18-22.26,7.18-6.49,0-12.06-2.75-16.69-8.25-4.83-5.5-10.29-15.26-16.41-29.27-7.79-18.27-13.54-32.73-17.25-43.38-3.71-10.47-8.07-25.28-13.08-44.44l-2.78-10.38c-4.27,9.23-9.18,20.76-14.75,34.6-8.9,21.65-15.12,37.62-18.64,47.9-2.97,9.05-4.45,16.41-4.45,22.09,0,3.02.09,5.15.28,6.39,0,1.06.09,1.86.28,2.39v2.66c0,4.79-2.97,8.96-8.9,12.51-5.94,3.37-13.26,5.06-21.98,5.06-7.23,0-12.98-2.13-17.25-6.39-4.45-4.26-8.44-11.88-11.96-22.89-5.56-17.74-10.95-39.29-16.14-64.67-4.83-23.42-8.81-47.46-11.96-72.12-3.16-24.48-6.49-47.69-6.49-62.95,0-9.93,1.85-17.12,5.56-21.56,3.71-4.26,9.92-6.39,18.64-6.39,10.2,0,19.29,2.66,27.27,7.98,7.79,5.32,11.68,11.27,11.68,17.83,0,2.31-.37,6.39-1.11,12.24-.56,5.5.92,13.99.92,18.78,0,12.6,1.3,30.52,3.9,53.76.74,7.98,2.32,16.41,4.73,25.28Z"/>
    <path fill = "white" class="cls-1" d="m706.59,439.92c2.23,9.76,2.32,12.02,8.07,16.46,5.93,4.79,13.63,7.19,23.09,7.19,10.02,0,20.31-2.48,30.88-7.45,10.75-5.14,20.31-11.98,28.66-20.49,9.08-9.22,14.09-18.71,15.02-28.47.93-8.87,6.3-13.31,16.14-13.31,8.9,0,16.23,2.66,21.98,7.98,5.75,5.5,8.63,12.33,8.63,20.49,0,17.74-11.69,36.73-35.06,56.95-25.41,21.65-54.59,41.2-84.08,41.2-17.43,0-33.48-3.64-48.13-10.91-14.1-7.09-28.23-19.53-36.58-32.83-8.16-13.13-7.59-34.27-7.59-50.42,0-18.27,4.08-38.14,12.24-59.61,8.16-21.46,19.01-41.34,32.55-59.61,12.8-17.21,21.82-20.27,36.47-29.85,14.47-9.58,28.56-14.37,42.29-14.37,15.76,0,28.84,5.5,39.23,16.5,10.38,11.36,20.28,14.95,20.28,31.45,0,12.95-3.25,26.08-9.74,39.39-6.31,12.78-15.3,24.93-26.99,36.46-11.87,11.36-25.59,21.2-41.17,29.54-16.14,8.69-28.94,19.83-46.19,23.73Zm5.29-57.52c18.17-9.4,34.5-21.91,48.96-37.52,14.28-15.61,21.42-28.38,21.42-38.32,0-2.66-.56-1.18-1.68-2.43-1.49-1.42-6.8-2.08-9.03-2.08-9.46.53-16.94,5.67-29.36,22.34-12.98,17.39-23.09,36.72-30.32,58.01Z"/>
    <path fill = "white" class="cls-1" d="m943.39,471.22c5.15,8.58,11.15,14.09,17.99,16.51,7.13,2.71,15.19,2.59,24.18-.35,9.52-3.12,18.53-8.68,27.03-16.69,8.62-8.23,15.58-17.7,20.86-28.39,5.77-11.59,7.57-22.17,5.42-31.73-1.88-8.72,1.85-14.61,11.2-17.67,8.46-2.77,16.25-2.52,23.37.75,7.17,3.44,12.03,9.04,14.57,16.79,5.52,16.86.32,38.54-15.6,65.03-17.42,28.48-40.14,47.3-68.17,56.47-16.57,5.42-32.95,6.96-49.14,4.6-15.6-2.36-29.44-8.57-41.51-18.62-11.84-9.94-20.27-22.58-25.29-37.92-5.68-17.37-7.99-37.52-6.91-60.46,1.08-22.94,5.21-45.2,12.4-66.78,6.81-20.33,15.69-37.34,26.63-51,10.77-13.6,22.67-22.54,35.72-26.81,14.98-4.9,29.12-3.74,42.41,3.48,13.4,7.56,22.67,19.18,27.8,34.86,4.03,12.31,5.02,25.8,3,40.46-2.02,14.1-6.79,28.45-14.31,43.04-7.75,14.48-17.73,28.11-29.94,40.88-12.63,13.28-26.54,24.46-41.72,33.53Zm-7.66-52.93c14.35-14.59,25.97-31.55,34.86-50.89,8.72-19.28,11.53-33.64,8.44-43.08-.83-2.53-1.96-4.21-3.41-5.04-1.85-.89-3.83-.99-5.95-.29-8.82,3.45-16.55,15.03-23.17,34.74-6.93,20.57-10.52,42.08-10.77,64.57Z"/>
    <path fill = "white" class="cls-1" d="m1141.78,316.24c-12.89-1.63-21.17-2.86-24.82-3.71-3.67-.67-7.36-2.05-11.1-4.15-9.21-5.59-13.27-14.66-12.21-27.21.54-6.36,2.21-11.83,5.02-16.4,2.82-4.74,5.71-6.99,8.67-6.74.55.05,1.36.38,2.43,1.01,7.04,2.56,17.22,4.4,30.52,5.53-1.66-.14,2.14,0,11.41.43.47-3.34,1.07-9.34,1.81-18.01,1.44-16.97,1.74-29.23.89-36.78-.52-2.71-.66-5.4-.43-8.05.38-4.42,3.39-8.17,9.05-11.25,5.63-2.73,12.23-3.77,19.81-3.13,9.98.85,17.73,3.82,23.25,8.92,5.35,4.91,7.68,11.43,7,19.56-.36,4.24-1.82,13.73-4.37,28.47-1.37,7.36-2.43,14.31-3.16,20.83,16.45-.91,29.03-1.01,37.71-.27,12.2,1.04,17.8,7.39,16.81,19.05-.45,5.3-2.98,14.17-7.56,26.6-1.45,3.98-2.8,6.62-4.03,7.94-1.4,1.13-3.48,1.57-6.26,1.34,1.48.12-1.47-.3-8.83-1.28-4.41-.73-7.16-1.14-8.27-1.24-4.25-.36-11.96-.57-23.12-.63l-4.46-.11c-2.22,12.99-4.27,27.33-6.17,43.01l-.72,8.49c-.09,1.06-.26,2.47-.5,4.23-.25,1.76-.51,3.25-.8,4.47-.4,2.46-.77,5.81-1.13,10.05-1.72,15.88-2.84,26.91-3.37,33.1-2.99,35.18-2.62,59.34,1.1,72.47,1.08,2.59,1.54,4.94,1.36,7.06-.38,4.42-3.39,8.17-9.05,11.25-5.49,3.27-11.66,4.62-18.49,4.04-14.23-1.21-23.83-8.79-28.78-22.74-5.16-13.79-6.4-36.42-3.73-67.89,1.13-13.26,4.29-38.45,9.49-75.58.63-5.29,2.3-16.18,5.01-32.69Z"/>
  </g>
</svg>